<svg xmlns="http://www.w3.org/2000/svg" width="1024" height="1024"><path d="m536 166 2.094.113C589.486 169.2 640.483 185.527 684 213l1.902 1.197C713.694 231.85 741.042 254.48 762 280l1.243 1.504C788.877 312.638 809.15 347.044 823 385l1.002 2.74c6.639 18.407 11.231 37.275 14.748 56.51l.602 3.256c3.342 19.117 4.02 38.056 3.96 57.432l-.005 3.678c-.065 25.865-2.08 50.436-7.724 75.738-.5 2.268-.963 4.538-1.407 6.818C823.939 640.11 799.914 688.062 769 727l-1.374 1.76C759.018 739.761 749.709 749.963 740 760l-2.629 2.754c-4.557 4.687-9.403 8.86-14.508 12.941-2.88 2.318-5.68 4.713-8.488 7.117-56.348 46.957-129.41 71.388-202.25 71.438l-2.72.002c-14.999-.018-29.583-.782-44.405-3.252l-3.265-.536c-14.87-2.508-29.372-5.868-43.735-10.464l-2.735-.87C367.294 823.655 323.91 798.265 287 764l-3.555-3.242C275.536 753.509 268.063 746.079 261 738l-1.341-1.525C247.46 722.558 236.775 707.701 227 692c-.59-.94-.59-.94-1.19-1.9-31.355-50.294-49.786-109.571-50.105-168.982a379 379 0 0 0-.062-4.496c-.205-10.533.578-18.843 6.482-27.872 7.318-7 14.163-9.852 24.147-9.927l2.2-.02q3.595-.028 7.192-.041l2.492-.013q6.534-.03 13.067-.044c4.479-.011 8.957-.046 13.435-.085 3.461-.027 6.922-.035 10.383-.038q2.475-.008 4.95-.035c12.019-.128 22.162.694 31.247 9.43 6.276 7.207 7.521 14.07 7.188 23.523-.557 4.574-1.747 7.786-4.426 11.5l-1.875 2.75c-5.897 6.244-13.578 9.32-22.094 9.59q-2.658 0-5.316-.047l-2.854-.013c-2.975-.017-5.949-.054-8.923-.092q-3.047-.024-6.092-.042c-4.95-.032-9.897-.084-14.846-.146a2446 2446 0 0 0 5 30l.452 2.656C243.751 603.499 259.855 640.548 281 670l1.984 2.809A333 333 0 0 0 297 691l1.264 1.542C309.564 706.265 321.87 719.165 336 730l3.855 3.043c35.39 27.75 76.55 47.74 120.457 57.582l2.727.625c8.582 1.87 17.238 2.816 25.961 3.75l-.063-3.713a1795 1795 0 0 1-.157-13.737q-.03-2.963-.082-5.927a778 778 0 0 1-.089-8.557l-.062-2.643c-.003-8.528 2.917-15.54 8.672-21.853 6.033-5.318 12.904-8.023 20.89-7.906 7.207.838 13.876 3.73 18.891 9.024 8.148 11.187 7.491 22.127 7.25 35.437q-.03 2.895-.055 5.79c-.043 4.695-.112 9.39-.195 14.085 69.27-8.992 136.684-44.451 180-100l2.355-2.945c25.925-32.89 44.854-70.975 54.146-111.884.38-1.655.777-3.307 1.18-4.957 2.112-8.787 3.617-17.604 5.006-26.527l.682-4.302q.822-5.192 1.631-10.385l-1.768.027c-6.1.089-12.2.149-18.3.193q-3.41.03-6.82.082c-3.277.049-6.554.071-9.83.089l-3.057.062c-7.836.003-13.089-1.673-18.975-6.89L728 525l-2.125-2.312c-4.271-6.123-5.786-12.27-4.875-19.688 1.57-7.666 5.082-14.153 11.473-18.797 5.399-3.34 9.627-5.335 16.02-5.317h2.669l2.854.016 2.942.005c3.097.005 6.195.018 9.292.03l6.305.014q7.722.017 15.445.049c-6.721-55.4-24.02-106.792-59-151l-2.328-2.973c-5.868-7.335-12.207-14.22-18.672-21.027l-2.379-2.508c-4.663-4.788-9.601-9.077-14.82-13.25a268 268 0 0 1-5.383-4.422c-16.738-14.102-35.655-25.476-55.392-34.857a445 445 0 0 1-4.025-1.938C604.494 236.575 581.47 230.219 558 226l.08 3.39c.09 4.204.148 8.408.195 12.613q.037 2.715.102 5.43c.313 13.326-.304 23.975-9.377 34.567-1.965 1.512-1.965 1.512-3.937 2.688l-1.965 1.199c-7.51 3.985-15.774 4.725-23.989 2.238-7.839-3.655-13.889-9.098-17.288-17.115-1.89-6.929-1.435-14.34-1.423-21.475l-.026-5.405q-.02-5.647-.003-11.294c.011-4.803-.023-9.604-.069-14.407-.03-3.717-.031-7.434-.025-11.152q-.001-2.655-.032-5.309c-.115-11.457.528-19.389 8.765-28.088 8.129-7.91 16.015-8.489 26.992-7.88" fill="#1cb4b3"/><path d="M479.563 376.063c7.817 4.677 13.41 10.951 15.974 19.788.476 2.21.592 4.166.597 6.424l.014 2.58v2.822l.01 3.008q.015 5.005.019 10.009l.02 7.165c.02 7.173.03 14.347.039 21.521l.015 10.143a38831 38831 0 0 1 .046 44.674c.008 11.736.033 23.472.066 35.209q.049 18.085.054 36.172c.002 6.766.01 13.533.036 20.3q.035 9.55.018 19.102 0 3.501.02 7.002c.017 3.194.01 6.386-.003 9.58l.033 2.78c-.092 9.318-3.117 17.083-9.521 23.9-7.007 6.158-13.992 8.09-23.125 7.969-7.751-.569-14.402-3.68-19.875-9.211-4.235-5.828-7.112-11.04-7.14-18.316l-.017-2.61-.004-2.851-.015-3.042c-.016-3.373-.024-6.745-.033-10.119l-.03-7.243q-.04-10.881-.065-21.762l-.015-6.15a34282 34282 0 0 1-.09-49.301c-.016-11.868-.057-23.735-.108-35.603q-.078-18.292-.088-36.585c-.005-6.843-.02-13.686-.06-20.528-.038-6.442-.045-12.883-.032-19.325q0-3.538-.032-7.077c-.213-24.802-.213-24.802 8.501-34.45 1.647-1.58 3.317-2.797 5.228-4.038l1.66-1.242c7.687-4.9 19.846-4.421 27.902-.695" fill="#1fb7b2"/><path d="M575.625 375.75c8.516 4.075 12.832 10.168 16.442 18.8 1.215 4.493 1.216 8.645 1.2 13.278l.014 2.985c.013 3.297.011 6.595.01 9.893q.008 3.547.02 7.096c.018 6.426.022 12.852.024 19.278q.001 6.025.01 12.05.027 19.942.026 39.886v4.344c-.001 11.612.018 23.224.046 34.836q.043 17.906.04 35.813c0 6.696.006 13.392.027 20.088q.029 9.453.005 18.906-.003 3.462.015 6.922c.14 28.48.14 28.48-10.281 39.231-6.782 5.625-14.743 7.232-23.348 7.117-8.191-.779-14.314-5.485-19.875-11.273-5.488-7.077-6.296-13.37-6.274-22.031l-.016-3.05c-.015-3.372-.016-6.744-.016-10.115q-.011-3.628-.026-7.255c-.022-6.568-.03-13.136-.035-19.705q-.006-6.156-.017-12.313a23304 23304 0 0 1-.042-42.964v-2.22c-.004-11.869-.03-23.738-.068-35.606q-.057-18.296-.058-36.593c0-6.844-.009-13.687-.038-20.53a2892 2892 0 0 1-.012-19.316q.003-3.54-.02-7.079c-.021-3.228-.01-6.455.007-9.684l-.04-2.811c.106-8.28 3.321-14.159 7.78-20.978 9.75-9.326 21.71-11.765 34.5-7" fill="#1fb8b2"/><path d="M481 174c2.375 2.5 2.375 2.5 4 5l1.25 1.813c2.137 6.234.74 11.492-2.043 17.207-2.828 4.64-7.45 7.244-12.598 8.618l-2.644.546c-.975.205-1.95.41-2.955.623l-3.072.63c-7.73 1.601-15.347 3.392-22.938 5.563l-2.039.577C383.061 230.4 330.102 265.727 295 311a2545 2545 0 0 1-3.234 4.012c-27.282 34.046-47.884 74.938-57 117.707l-.642 2.972a334 334 0 0 0-1.162 5.7c-1.357 6.468-3.349 12.927-8.868 17.024-4.764 2.804-9.671 3.664-15.094 2.585-4.95-1.98-9.001-4.985-11.39-9.888-2.657-9.186.154-19.474 2.265-28.487l.464-2.011c5.552-23.88 13.72-46.656 24.661-68.614l1.363-2.76c14.207-28.557 32.693-57.457 55.93-79.568 1.779-1.743 3.358-3.576 4.957-5.485 4.788-5.545 10.273-10.342 15.75-15.187l1.654-1.47C328.237 226.65 354.536 209.475 383 196l2.267-1.085C403.099 186.429 421.713 179.382 441 175l2.836-.645c3.197-.717 6.398-1.415 9.601-2.105l3.09-.677c9.042-1.889 16.506-3.044 24.473 2.427" fill="#fc704c"/><path d="M479 240c3.754 3.703 5.8 6.916 6.313 12.25-.468 5.61-2.473 9.007-6.528 12.848-3.252 2.22-5.81 2.854-9.66 3.652-32.832 7.538-64.741 23.308-90.566 44.951a262 262 0 0 1-4.563 3.69C358.363 330.088 343.782 344.647 332 361q-1.26 1.685-2.523 3.367c-18.148 24.43-31.925 53.196-38.668 82.913-1.524 6.196-4.407 9.238-9.747 12.533-3.49 1.353-5.356 1.78-9.062 1.187-5.405-2.451-9.468-5.515-12-11-.528-7.437.925-13.697 3-20.812l.954-3.321c3.023-10.253 6.745-20.089 11.046-29.867l1.022-2.364c11.49-26.344 28.224-50.022 47.654-71.09a200 200 0 0 0 5.637-6.483c4.618-5.317 9.917-9.944 15.138-14.654a246 246 0 0 0 3.908-3.651C361.452 285.454 376.517 275.055 392 266l2.066-1.228C458.527 226.648 458.527 226.648 479 240" fill="#26bcab"/><path d="m557 224 3 1-2 1v39l-2-1a7325 7325 0 0 1-.055-16.608q-.008-2.827-.02-5.654-.018-4.054-.023-8.11l-.015-2.569c0-2.02.05-4.04.113-6.059z" fill="#55ccb3"/><path d="M260 441h2l2 13c-4-4-4-4-4.39-6.36l.14-2.39.11-2.422z" fill="#2cb9be"/></svg>